<?xml version="1.0" encoding="utf-8"?>
<!-- Generator: Adobe Illustrator 19.1.0, SVG Export Plug-In . SVG Version: 6.00 Build 0)  -->
<svg version="1.1" id="Layer_1" xmlns="http://www.w3.org/2000/svg" xmlns:xlink="http://www.w3.org/1999/xlink" x="0px" y="0px"
	 viewBox="0 0 310 952" style="enable-background:new 0 0 310 952;" xml:space="preserve">
<style type="text/css">
	.st0{fill:#633029;}
</style>
<path class="st0" d="M276.8,202.2c-32.3-47-22.5-129.4-22.5-129.4s0.5-0.5,5-4.5c4.5-4,3.5-4.5,3.5-8.5s0-8,0-8L262.1,12l-4.5-11.6
	H52.4L47.9,12l-0.6,39.8c0,0,0,4,0,8s-1,4.5,3.5,8.5c4.5,4,5,4.5,5,4.5s9.8,82.4-22.5,129.4c-38.5,55.9-33,82.9-33,82.9
	s0,502.9,0,556.8s42,50,42,50h225.5c0,0,42,4,42-50s0-556.8,0-556.8S315.2,258.2,276.8,202.2z"/>
</svg>
